<svg width="322" height="80" viewBox="0 0 322 80" fill="none" xmlns="http://www.w3.org/2000/svg">
    <g clip-path="url(#clip0_185_1054)">
        <path d="M72.3411 4.61293C72.8076 4.77719 73.2139 5.07764 73.5078 5.47541C73.8016 5.87317 73.9694 6.34996 73.9893 6.8441C74.2427 9.48288 74.3507 12.1336 74.3128 14.7843C74.285 16.0003 74.257 17.2162 74.1761 18.4322C73.7187 18.2426 73.2865 18.0529 72.8263 17.8744C71.6661 17.417 70.531 16.9848 69.368 16.5776C69.3959 15.9584 69.4239 15.3644 69.4239 14.7424C69.449 12.7706 69.3959 10.771 69.2342 8.74617C67.3432 8.15212 65.3715 7.61106 63.3773 7.12578C60.8673 6.53174 58.3572 6.04368 55.8137 5.69227C54.3829 5.50541 53.0052 5.34085 51.6832 5.20698C50.3612 5.07311 48.9528 4.99223 47.5221 4.92808C46.4065 4.90019 45.3606 4.87509 44.2283 4.87509L42.5801 4.9002C42.0921 4.9002 41.5259 4.92808 40.9318 4.92808C39.5011 4.98386 38.1234 5.08984 36.7707 5.20698C35.4181 5.32412 34.071 5.50541 32.6403 5.69227C30.1302 6.04368 27.5894 6.52895 25.0766 7.12578C23.0769 7.61106 21.133 8.15212 19.2198 8.74617C18.8907 13.1858 19.0085 17.6473 19.5712 22.0634C19.8699 24.5339 20.3028 26.9862 20.8681 29.4095C21.1916 30.7873 21.5709 32.165 21.9837 33.487L22.0116 33.5958L22.0366 33.7045L22.0645 33.8133L22.1175 33.9193L22.1454 34.0281L22.1732 34.1368L22.2011 34.2456L22.3071 34.5412V34.5691L22.335 34.6751L22.5247 35.1883L22.5498 35.2971L22.7144 35.7293L22.7395 35.8102C23.5737 38.2289 24.5392 40.6002 25.6316 42.9137L25.6846 42.9946L25.7125 43.0782L25.7376 43.1312L25.7933 43.2121L25.8185 43.293L25.8464 43.3739L25.8994 43.4268C26.3066 44.2635 26.7361 45.1002 27.1711 45.9369C27.4947 46.478 27.7902 47.0525 28.0886 47.5573C28.44 48.1802 28.7645 48.7203 29.062 49.1777C29.9796 50.6642 30.9501 52.1228 31.9792 53.5285C33.0084 54.9341 34.057 56.284 35.22 57.6338C35.6533 58.147 36.1395 58.6871 36.6787 59.2542C37.1918 59.812 37.6771 60.3698 38.1373 60.8467C39.3254 62.0627 40.5664 63.2257 41.8103 64.358L42.3234 64.7903C41.972 65.0692 41.6207 65.3481 41.2442 65.627C40.2709 66.3549 39.2724 67.0577 38.2711 67.7605C32.8744 62.9226 28.2315 57.3049 24.4964 51.0937V51.0658L24.4685 51.0407L24.4407 51.0128C24.226 50.6614 24.0362 50.31 23.8466 50.0144C23.5231 49.4203 23.1717 48.8235 22.876 48.2573C21.9836 46.637 21.1721 44.9636 20.3912 43.2065C19.6103 41.4495 18.9326 39.7231 18.3106 37.994C17.4418 35.5497 16.7025 33.0613 16.0961 30.5391C14.2611 22.7791 13.7138 14.7704 14.4758 6.83295C14.4986 6.33807 14.6706 5.86169 14.9693 5.46645C15.268 5.07121 15.6793 4.77561 16.1492 4.61851C18.715 3.75394 21.3366 2.99812 23.9833 2.3483C26.577 1.75425 29.2488 1.23272 31.9792 0.836687C33.3737 0.647038 34.8408 0.485281 36.3803 0.351411C37.8668 0.214752 39.3254 0.10877 40.7561 0.0529909C41.2972 0.0529909 41.8717 0.0251081 42.4852 0.0251081L44.2423 0L45.9966 0.0251081C46.6185 0.0251081 47.2125 0.0529909 47.7257 0.0529909C49.1843 0.10877 50.6429 0.214752 52.1295 0.351411C53.669 0.485281 55.1276 0.647038 56.5053 0.836687C59.258 1.24109 61.9327 1.75425 64.5264 2.3483C67.1481 2.99812 69.7668 3.74278 72.3606 4.61851L72.3411 4.61293ZM56.5109 53.5313C57.4842 52.1535 58.4632 50.7423 59.3473 49.2892C59.6524 48.7413 60.153 48.3285 60.7489 48.1331C61.3449 47.9377 61.9927 47.9741 62.563 48.235C67.2566 50.4785 71.5175 53.5328 75.1495 57.2573C75.5745 57.6491 75.8479 58.1779 75.9218 58.7511C75.9958 59.3244 75.8656 59.9053 75.554 60.3921C74.7982 61.5802 73.9615 62.8213 73.1248 64.0373C72.2881 65.2532 71.3677 66.4414 70.478 67.5765C69.8282 68.4131 69.1254 69.2777 68.3696 70.1423C67.7225 70.8981 66.9919 71.7348 66.1831 72.6273C65.048 73.8711 63.9519 75.0034 62.8363 76.1107H62.8084C61.7291 77.1928 60.5773 78.247 59.378 79.2984C59.0242 79.6431 58.5753 79.8738 58.0891 79.9608C57.6029 80.0478 57.1017 79.9871 56.6503 79.7865C53.0951 78.1544 49.672 76.2485 46.4121 74.0859C46.8444 73.7624 47.2766 73.4389 47.7089 73.0874C48.6265 72.3567 49.5469 71.6288 50.4087 70.8563C52.6117 72.2565 54.894 73.5276 57.2444 74.6632C57.9723 73.9882 58.6751 73.3133 59.4058 72.6105C60.5381 71.4949 61.5924 70.424 62.5657 69.3419C63.2128 68.6669 63.8877 67.8581 64.6463 66.9935C65.2933 66.2098 65.9683 65.3983 66.6181 64.5365C67.5078 63.4544 68.3193 62.3471 69.103 61.212C69.5353 60.6542 69.9398 60.0239 70.3442 59.4299C69.1284 58.2643 67.8279 57.1904 66.4535 56.217C65.1517 55.273 63.7897 54.415 62.3762 53.6484C61.7542 54.5938 61.1071 55.5142 60.4572 56.4039C59.3249 57.9713 58.162 59.4299 56.9739 60.8355C56.4329 61.4547 55.9197 62.0236 55.4344 62.5647C55.2169 62.8436 54.9742 63.0779 54.7316 63.3456L54.7037 63.3735L54.6786 63.4014L54.6507 63.4265L54.6228 63.4544L54.5977 63.4823L54.5698 63.5101L54.5419 63.5353L54.4889 63.591V63.6161C51.9098 66.3327 49.1388 68.8604 46.1973 71.1798C41.7524 74.5928 36.9304 77.4844 31.8259 79.7977C31.3619 80.0058 30.845 80.0655 30.3458 79.9686C29.8466 79.8718 29.3895 79.6231 29.0369 79.2566C27.8461 78.2303 26.7389 77.1761 25.6316 76.1218C24.5161 75.0425 23.4172 73.8906 22.2849 72.6384C21.4482 71.7459 20.7202 70.9093 20.0703 70.1535C19.3424 69.2889 18.6397 68.4243 17.9647 67.5876C17.0723 66.4274 16.2077 65.2644 15.3431 64.0484C14.4786 62.8324 13.6698 61.5913 12.914 60.4032C12.3171 59.4578 11.6979 58.451 11.0759 57.4051C10.5182 56.3788 9.94084 55.3524 9.40257 54.3372C8.70254 53.0404 8.05276 51.7157 7.43083 50.3937C6.80889 49.0717 6.27064 47.7442 5.70448 46.3664C4.67814 43.8564 3.78569 41.2905 3.00199 38.6689C2.2183 36.0473 1.57126 33.4034 1.04972 30.7288C0.948196 30.2361 1.00297 29.7241 1.20647 29.2641C1.40996 28.8041 1.75196 28.4191 2.18478 28.1629C5.32952 25.9276 8.64353 23.9405 12.0967 22.2196C12.2306 23.5165 12.3951 24.7855 12.6099 26.0545C12.6629 26.4867 12.7437 26.919 12.8246 27.3513C10.5322 28.5503 8.31379 29.8858 6.18138 31.3507C6.61367 33.3755 7.12681 35.3472 7.69297 37.2661C8.42368 39.751 9.28835 42.1802 10.2338 44.5173C10.747 45.7863 11.2852 47.0553 11.8793 48.3243C12.4733 49.5933 13.0701 50.8343 13.7171 52.0252C14.2303 53.0265 14.7714 53.9775 15.3125 54.9425C15.8508 55.8349 16.4281 56.7804 17.0388 57.7788C17.7974 58.9669 18.5532 60.1299 19.3369 61.2092C20.1206 62.2886 20.9573 63.4404 21.8219 64.5337C22.4968 65.3955 23.1439 66.2071 23.8188 66.9907C24.5495 67.8553 25.2523 68.6641 25.8714 69.3391C26.8727 70.4212 27.9242 71.5005 29.0593 72.6077C29.7621 73.3105 30.4928 73.9855 31.1928 74.6353C35.2571 72.6802 39.1125 70.318 42.7 67.5848C47.9579 63.5976 52.6076 58.8662 56.5026 53.5396L56.5109 53.5313ZM86.2524 28.1518C86.6838 28.4107 87.0259 28.795 87.2332 29.2535C87.4404 29.7119 87.5031 30.2227 87.4126 30.7176C86.8716 33.3922 86.2245 36.0389 85.4408 38.6577C84.6571 41.2766 83.7674 43.8452 82.7662 46.3553C82.6647 46.6057 82.5181 46.8354 82.3338 47.033C81.9101 47.5243 81.31 47.829 80.6633 47.8812C80.0166 47.9334 79.3754 47.7289 78.8784 47.3119C77.0532 45.7232 75.1216 44.2611 73.0969 42.936C71.1074 41.6346 69.0313 40.4707 66.883 39.4526C66.3196 39.1984 65.8715 38.7428 65.6269 38.1751C65.3823 37.6075 65.3589 36.9688 65.5611 36.3847C66.369 34.1117 67.045 31.7939 67.5858 29.443C67.8285 28.5254 68.0181 27.6051 68.2078 26.6541C68.8297 26.8967 69.4239 27.1421 70.0458 27.4099C70.9634 27.8171 71.8808 28.2466 72.7984 28.6816C72.6645 29.3287 72.5195 29.9506 72.3662 30.5726C71.9367 32.3826 71.4486 34.1982 70.8825 35.9748C72.5559 36.8393 74.204 37.8099 75.7965 38.8362C77.0125 39.6478 78.2285 40.5096 79.3915 41.4021C79.8768 40.0522 80.3369 38.6745 80.7413 37.2716C81.3354 35.3528 81.8207 33.3671 82.2808 31.3563C78.7363 28.9326 74.9636 26.8608 71.0163 25.1703C68.5852 24.1196 66.0962 23.208 63.5615 22.4399C61.2452 21.7404 58.8912 21.1725 56.5109 20.7387C54.8375 20.4431 53.1084 20.2004 51.3513 20.0108C49.5943 19.8211 47.8679 19.7124 46.1388 19.6594L45.1682 19.6315H43.2774L42.3319 19.6594C40.6027 19.7124 38.8456 19.8211 37.1165 20.0108C35.3873 20.2004 33.6331 20.4431 31.9318 20.7387C29.5808 21.171 27.2324 21.765 24.8813 22.4399C23.9888 22.7188 23.0992 22.9978 22.2067 23.3045C22.1258 22.7914 22.045 22.3061 21.992 21.7929C21.8302 20.6327 21.7131 19.4976 21.6406 18.3346C28.9283 15.9251 36.5555 14.701 44.2312 14.709C53.7256 14.722 63.1275 16.5745 71.9172 20.1642C76.9864 22.2764 81.7985 24.959 86.2607 28.1601L86.2524 28.1518ZM41.2498 49.518C40.8454 49.0048 40.494 48.5446 40.1704 48.1402C37.6002 44.6215 35.4178 40.8353 33.6611 36.8477C33.4184 36.3094 33.173 35.7684 32.9582 35.2273C32.7435 34.6863 32.5789 34.2289 32.4004 33.7157C32.3232 33.5374 32.2688 33.3499 32.2387 33.1579C32.1811 32.8403 32.1873 32.5143 32.257 32.1992C32.3267 31.884 32.4585 31.5858 32.6446 31.3221C32.8307 31.0583 33.0676 30.8342 33.3412 30.6629C33.6148 30.4916 33.9198 30.3765 34.2383 30.3243C34.7515 30.2156 35.3538 30.1347 35.9674 30.0454L37.7217 29.8C38.8038 29.694 39.8832 29.6131 40.9904 29.5211C42.0976 29.4291 43.2215 29.4403 44.2339 29.4403C45.2463 29.4403 46.3396 29.4653 47.4998 29.5211C48.6153 29.602 49.6892 29.6829 50.7434 29.8L52.4976 30.0454C53.1474 30.1263 53.7136 30.2072 54.2547 30.3243C54.3926 30.3465 54.5279 30.382 54.659 30.4303C55.2703 30.651 55.7696 31.1043 56.048 31.6915C56.3265 32.2787 56.3615 32.9522 56.1455 33.5651C55.928 34.1229 55.7132 34.6974 55.4957 35.2385C55.2781 35.7795 55.0634 36.3206 54.8208 36.8589C53.9433 38.8464 52.9602 40.7857 51.8756 42.6683C50.786 44.5644 49.5866 46.3952 48.2835 48.1514C47.8781 48.6887 47.5277 49.1479 47.232 49.5291C46.7719 50.0869 46.4204 50.5555 46.1165 50.879C46.0213 50.9997 45.9117 51.1083 45.7902 51.2025C45.5449 51.4091 45.2608 51.5649 44.9547 51.6606C44.6486 51.7564 44.3265 51.7902 44.0072 51.7601C43.6878 51.7299 43.3776 51.6365 43.0948 51.4852C42.8119 51.334 42.5621 51.1279 42.3598 50.879C41.9554 50.4188 41.604 49.9865 41.2442 49.5291L41.2498 49.518Z"
              fill="#38CEC9"/>
    </g>
    <path d="M113.648 35.112C115.376 32.424 118.416 31.08 122.768 31.08V36.792C122.256 36.696 121.792 36.648 121.376 36.648C119.04 36.648 117.216 37.336 115.904 38.712C114.592 40.056 113.936 42.008 113.936 44.568V57H107.936V31.368H113.648V35.112Z"
          fill="#F6F6FA"/>
    <path d="M151.719 44.328C151.719 44.744 151.688 45.336 151.623 46.104H131.511C131.863 47.992 132.775 49.496 134.247 50.616C135.751 51.704 137.607 52.248 139.815 52.248C142.632 52.248 144.951 51.32 146.775 49.464L149.991 53.16C148.839 54.536 147.383 55.576 145.623 56.28C143.863 56.984 141.879 57.336 139.671 57.336C136.855 57.336 134.375 56.776 132.231 55.656C130.087 54.536 128.423 52.984 127.239 51C126.087 48.984 125.511 46.712 125.511 44.184C125.511 41.688 126.071 39.448 127.191 37.464C128.343 35.448 129.927 33.88 131.943 32.76C133.959 31.64 136.231 31.08 138.759 31.08C141.255 31.08 143.479 31.64 145.431 32.76C147.415 33.848 148.951 35.4 150.039 37.416C151.16 39.4 151.719 41.704 151.719 44.328ZM138.759 35.88C136.839 35.88 135.207 36.456 133.863 37.608C132.551 38.728 131.751 40.232 131.463 42.12H146.007C145.751 40.264 144.967 38.76 143.655 37.608C142.343 36.456 140.711 35.88 138.759 35.88Z"
          fill="#F6F6FA"/>
    <path d="M165.403 57.336C163.323 57.336 161.291 57.064 159.307 56.52C157.323 55.976 155.739 55.288 154.555 54.456L156.859 49.896C158.011 50.664 159.387 51.288 160.987 51.768C162.619 52.216 164.219 52.44 165.787 52.44C169.371 52.44 171.163 51.496 171.163 49.608C171.163 48.712 170.699 48.088 169.771 47.736C168.875 47.384 167.419 47.048 165.403 46.728C163.291 46.408 161.563 46.04 160.219 45.624C158.907 45.208 157.755 44.488 156.763 43.464C155.803 42.408 155.323 40.952 155.323 39.096C155.323 36.664 156.331 34.728 158.347 33.288C160.395 31.816 163.147 31.08 166.603 31.08C168.363 31.08 170.123 31.288 171.883 31.704C173.643 32.088 175.083 32.616 176.203 33.288L173.899 37.848C171.723 36.568 169.275 35.928 166.555 35.928C164.795 35.928 163.451 36.2 162.523 36.744C161.627 37.256 161.179 37.944 161.179 38.808C161.179 39.768 161.659 40.456 162.619 40.872C163.611 41.256 165.131 41.624 167.179 41.976C169.227 42.296 170.907 42.664 172.219 43.08C173.531 43.496 174.651 44.2 175.579 45.192C176.539 46.184 177.019 47.592 177.019 49.416C177.019 51.816 175.979 53.736 173.899 55.176C171.819 56.616 168.987 57.336 165.403 57.336Z"
          fill="#F6F6FA"/>
    <path d="M206.282 44.328C206.282 44.744 206.25 45.336 206.186 46.104H186.074C186.426 47.992 187.338 49.496 188.81 50.616C190.314 51.704 192.17 52.248 194.378 52.248C197.194 52.248 199.514 51.32 201.338 49.464L204.554 53.16C203.402 54.536 201.946 55.576 200.186 56.28C198.426 56.984 196.442 57.336 194.234 57.336C191.418 57.336 188.938 56.776 186.794 55.656C184.65 54.536 182.986 52.984 181.802 51C180.65 48.984 180.074 46.712 180.074 44.184C180.074 41.688 180.634 39.448 181.754 37.464C182.906 35.448 184.49 33.88 186.506 32.76C188.522 31.64 190.794 31.08 193.322 31.08C195.818 31.08 198.042 31.64 199.994 32.76C201.978 33.848 203.514 35.4 204.602 37.416C205.722 39.4 206.282 41.704 206.282 44.328ZM193.322 35.88C191.402 35.88 189.77 36.456 188.426 37.608C187.114 38.728 186.314 40.232 186.026 42.12H200.57C200.314 40.264 199.53 38.76 198.218 37.608C196.906 36.456 195.274 35.88 193.322 35.88Z"
          fill="#F6F6FA"/>
    <path d="M223.805 57.336C221.149 57.336 218.765 56.776 216.653 55.656C214.541 54.536 212.893 52.984 211.709 51C210.525 48.984 209.933 46.712 209.933 44.184C209.933 41.656 210.525 39.4 211.709 37.416C212.893 35.432 214.525 33.88 216.605 32.76C218.717 31.64 221.117 31.08 223.805 31.08C226.333 31.08 228.541 31.592 230.429 32.616C232.349 33.64 233.789 35.112 234.749 37.032L230.141 39.72C229.405 38.536 228.477 37.656 227.357 37.08C226.269 36.472 225.069 36.168 223.757 36.168C221.517 36.168 219.661 36.904 218.189 38.376C216.717 39.816 215.981 41.752 215.981 44.184C215.981 46.616 216.701 48.568 218.141 50.04C219.613 51.48 221.485 52.2 223.757 52.2C225.069 52.2 226.269 51.912 227.357 51.336C228.477 50.728 229.405 49.832 230.141 48.648L234.749 51.336C233.757 53.256 232.301 54.744 230.381 55.8C228.493 56.824 226.301 57.336 223.805 57.336Z"
          fill="#F6F6FA"/>
    <path d="M264.752 31.368V57H259.04V53.736C258.08 54.888 256.88 55.784 255.44 56.424C254 57.032 252.448 57.336 250.784 57.336C247.36 57.336 244.656 56.392 242.672 54.504C240.72 52.584 239.744 49.752 239.744 46.008V31.368H245.744V45.192C245.744 47.496 246.256 49.224 247.28 50.376C248.336 51.496 249.824 52.056 251.744 52.056C253.888 52.056 255.584 51.4 256.832 50.088C258.112 48.744 258.752 46.824 258.752 44.328V31.368H264.752Z"
          fill="#F6F6FA"/>
    <path d="M278.32 35.112C280.048 32.424 283.088 31.08 287.44 31.08V36.792C286.928 36.696 286.464 36.648 286.048 36.648C283.712 36.648 281.888 37.336 280.576 38.712C279.264 40.056 278.608 42.008 278.608 44.568V57H272.608V31.368H278.32V35.112Z"
          fill="#F6F6FA"/>
    <path d="M306.738 31.08C309.234 31.08 311.458 31.624 313.41 32.712C315.394 33.8 316.946 35.336 318.066 37.32C319.186 39.304 319.746 41.592 319.746 44.184C319.746 46.776 319.186 49.08 318.066 51.096C316.946 53.08 315.394 54.616 313.41 55.704C311.458 56.792 309.234 57.336 306.738 57.336C304.978 57.336 303.362 57.032 301.89 56.424C300.45 55.816 299.234 54.904 298.242 53.688V57H292.53V21.384H298.53V34.488C299.554 33.368 300.754 32.52 302.13 31.944C303.538 31.368 305.074 31.08 306.738 31.08ZM306.066 52.2C308.274 52.2 310.082 51.464 311.49 49.992C312.93 48.52 313.65 46.584 313.65 44.184C313.65 41.784 312.93 39.848 311.49 38.376C310.082 36.904 308.274 36.168 306.066 36.168C304.626 36.168 303.33 36.504 302.178 37.176C301.026 37.816 300.114 38.744 299.442 39.96C298.77 41.176 298.434 42.584 298.434 44.184C298.434 45.784 298.77 47.192 299.442 48.408C300.114 49.624 301.026 50.568 302.178 51.24C303.33 51.88 304.626 52.2 306.066 52.2Z"
          fill="#F6F6FA"/>
    <defs>
        <clipPath id="clip0_185_1054">
            <rect width="88" height="80" fill="white"/>
        </clipPath>
    </defs>
</svg>
